<?xml version="1.0" encoding="UTF-8"?>
<svg version="1.1" xmlns="http://www.w3.org/2000/svg" width="500" height="500">
<path d="M0 0 C165 0 330 0 500 0 C500 165 500 330 500 500 C335 500 170 500 0 500 C0 335 0 170 0 0 Z " fill="#FEFEFE" transform="translate(0,0)"/>
<path d="M0 0 C2.73803711 1.42358398 2.73803711 1.42358398 5.52734375 3.24609375 C6.56060791 3.91447266 7.59387207 4.58285156 8.65844727 5.27148438 C10.28157837 6.34366211 10.28157837 6.34366211 11.9375 7.4375 C13.05667922 8.16683121 14.17639246 8.89534359 15.29663086 9.62304688 C18.54028455 11.73482773 21.77125193 13.86549017 25 16 C25.86786133 16.57250488 26.73572266 17.14500977 27.62988281 17.73486328 C31.76785562 20.46854278 35.89210967 23.22132947 40 26 C40.06058594 25.00097656 40.12117187 24.00195312 40.18359375 22.97265625 C40.26738281 21.68230469 40.35117187 20.39195312 40.4375 19.0625 C40.55931641 17.13083984 40.55931641 17.13083984 40.68359375 15.16015625 C41 12 41 12 42 11 C43.47652664 10.90119203 44.95767236 10.86920755 46.4375 10.8671875 C47.33210937 10.86589844 48.22671875 10.86460937 49.1484375 10.86328125 C50.08945312 10.86714844 51.03046875 10.87101563 52 10.875 C53.41152344 10.86919922 53.41152344 10.86919922 54.8515625 10.86328125 C56.19347656 10.86521484 56.19347656 10.86521484 57.5625 10.8671875 C58.38878906 10.86831543 59.21507812 10.86944336 60.06640625 10.87060547 C62 11 62 11 63 12 C63.08783542 14.21855264 63.10694609 16.43988496 63.09765625 18.66015625 C63.09553383 19.65685585 63.09553383 19.65685585 63.09336853 20.6736908 C63.08775518 22.80333899 63.07520054 24.93288339 63.0625 27.0625 C63.05748671 28.50325369 63.05292351 29.94400903 63.04882812 31.38476562 C63.03778145 34.92321102 63.02050792 38.46159539 63 42 C63.71551025 42.26119629 64.43102051 42.52239258 65.16821289 42.79150391 C68.12973927 44.05536765 70.62122398 45.56522544 73.30859375 47.3359375 C74.30310547 47.98820312 75.29761719 48.64046875 76.32226562 49.3125 C77.35029297 49.993125 78.37832031 50.67375 79.4375 51.375 C80.46166016 52.04789063 81.48582031 52.72078125 82.54101562 53.4140625 C84.50763323 54.70732042 86.47056259 56.0062099 88.42919922 57.31152344 C89.95367547 58.31278438 91.49246589 59.29358768 93.05908203 60.22753906 C94.72265625 61.2265625 94.72265625 61.2265625 97 63 C97 64.32 97 65.64 97 67 C92.2724772 66.48459338 89.04807197 64.28707297 85.25 61.625 C83.90965075 60.70846939 82.56847339 59.7931489 81.2265625 58.87890625 C80.18483887 58.16565186 80.18483887 58.16565186 79.12207031 57.43798828 C75.65862258 55.09103624 72.1428766 52.82671707 68.625 50.5625 C67.17968014 49.63021975 65.73436767 48.69792803 64.2890625 47.765625 C63.57395508 47.30478516 62.85884766 46.84394531 62.12207031 46.36914062 C60.08727898 45.05631161 58.05484826 43.73992755 56.0234375 42.421875 C49.71862356 38.33203668 43.40540551 34.25596391 37.07421875 30.20703125 C36.03040039 29.53945801 34.98658203 28.87188477 33.91113281 28.18408203 C31.76718053 26.81464144 29.6220024 25.44711805 27.47558594 24.08154297 C22.31946711 20.79500921 17.19363608 17.47679571 12.12890625 14.05078125 C11.21858643 13.44024902 10.3082666 12.8297168 9.37036133 12.20068359 C7.66515203 11.0532857 5.96785491 9.89401082 4.2800293 8.72119141 C3.14368042 7.96008057 3.14368042 7.96008057 1.984375 7.18359375 C1.33178711 6.73556396 0.67919922 6.28753418 0.00683594 5.82592773 C-2.70806088 4.70859246 -4.2264675 5.14962966 -7 6 C-9.49209398 7.39534294 -11.86092857 8.82210357 -14.25 10.375 C-14.94963867 10.82125732 -15.64927734 11.26751465 -16.37011719 11.72729492 C-18.58534609 13.14351197 -20.79308192 14.57087407 -23 16 C-24.37481218 16.88440662 -25.7498086 17.76852691 -27.125 18.65234375 C-31.42510409 21.4219543 -35.71300715 24.21015414 -40 27 C-41.64056459 28.06649918 -43.28119139 29.13290268 -44.921875 30.19921875 C-47.47085161 31.85601661 -50.01979323 33.51286814 -52.56860352 35.16992188 C-66.46833823 44.20614968 -66.46833823 44.20614968 -72.26953125 47.94140625 C-75.45656609 49.99508566 -78.62996699 52.06857921 -81.79762268 54.15202332 C-84.08333637 55.65261618 -86.37467412 57.14448113 -88.66690063 58.63510132 C-89.80112401 59.37542368 -90.93297086 60.11940051 -92.06234741 60.86709595 C-93.6473103 61.91567302 -95.24145323 62.95033382 -96.8359375 63.984375 C-97.75938965 64.58991211 -98.6828418 65.19544922 -99.63427734 65.81933594 C-102 67 -102 67 -105 66 C-104.40257533 62.3917822 -104.13524338 62.09807726 -100.9296875 59.7734375 C-99.58490299 58.96260906 -98.23276222 58.16390423 -96.875 57.375 C-95.39071794 56.4811715 -93.90766926 55.58529204 -92.42578125 54.6875 C-91.30163818 54.01074219 -91.30163818 54.01074219 -90.15478516 53.3203125 C-87.0632801 51.42603884 -84.06225083 49.41033222 -81.0625 47.375 C-73.21100803 42.07970766 -65.22037698 37.00560764 -57.23242188 31.91943359 C-50.49988841 27.62493061 -43.81295285 23.27547284 -37.23828125 18.7421875 C-33.21129261 16 -33.21129261 16 -31 16 C-33.77488604 13.05168359 -36.55119004 10.8062049 -40 8.6875 C-41.2684375 7.88892578 -41.2684375 7.88892578 -42.5625 7.07421875 C-45.4171676 5.8161521 -46.12571334 6.03653472 -49 7 C-51.42760412 8.44825282 -53.77449373 9.93513704 -56.125 11.5 C-56.86234375 11.98428467 -57.5996875 12.46856934 -58.359375 12.9675293 C-60.01080411 14.05228826 -61.66078758 15.13925022 -63.30957031 16.22802734 C-66.11388689 18.07500826 -68.92688183 19.90809835 -71.7421875 21.73828125 C-81.37938689 28.00908791 -90.9916263 34.31395091 -100.55078125 40.703125 C-101.27836639 41.1892778 -102.00595154 41.6754306 -102.75558472 42.17631531 C-106.32075626 44.55944146 -109.8836671 46.94585566 -113.44335938 49.3371582 C-119.66233253 53.50815574 -125.9020943 57.64875429 -132.23046875 61.65234375 C-133.24906982 62.30066162 -134.2676709 62.94897949 -135.31713867 63.61694336 C-138 65 -138 65 -142 65 C-141.70317532 61.98151485 -141.12036097 61.10111527 -138.75708008 59.11572266 C-137.77118896 58.4716748 -136.78529785 57.82762695 -135.76953125 57.1640625 C-135.23153397 56.80829132 -134.69353668 56.45252014 -134.13923645 56.08596802 C-132.37086344 54.92088327 -130.59204346 53.77293569 -128.8125 52.625 C-127.57738403 51.8163121 -126.34285146 51.00673252 -125.10888672 50.19628906 C-116.76749537 44.7327022 -108.35940583 39.37164802 -99.92871094 34.04711914 C-93.74753649 30.1379043 -87.63899238 26.1323023 -81.5625 22.0625 C-80.7163916 21.49813232 -79.8702832 20.93376465 -78.99853516 20.35229492 C-75.29914637 17.8835932 -71.60357464 15.41024289 -67.92529297 12.91015625 C-64.79209497 10.78125624 -61.64695305 8.67099584 -58.5 6.5625 C-57.52619385 5.8929126 -56.5523877 5.2233252 -55.54907227 4.53344727 C-54.63569092 3.92557373 -53.72230957 3.3177002 -52.78125 2.69140625 C-51.97751953 2.14685791 -51.17378906 1.60230957 -50.34570312 1.04125977 C-47.38317742 -0.27380811 -46.04336262 -0.01729695 -43 1 C-41.04296875 2.06323242 -41.04296875 2.06323242 -39.1875 3.35546875 C-38.50429687 3.81244141 -37.82109375 4.26941406 -37.1171875 4.74023438 C-35.70024711 5.70882555 -34.28878687 6.68548041 -32.8828125 7.66992188 C-29.01168634 10.40462222 -29.01168634 10.40462222 -24.49609375 10.625 C-23.67238281 10.08875 -22.84867187 9.5525 -22 9 C-21.41105957 8.62464111 -20.82211914 8.24928223 -20.21533203 7.86254883 C-17.43587295 6.07643478 -14.69004458 4.24551162 -11.97070312 2.36914062 C-11.29072266 1.92376953 -10.61074219 1.47839844 -9.91015625 1.01953125 C-9.30308838 0.60807861 -8.69602051 0.19662598 -8.07055664 -0.22729492 C-5.04158073 -1.35766973 -3.09674084 -0.82794299 0 0 Z " fill="#F85C2F" transform="translate(275,157)"/>
<path d="M0 0 C15 0 15 0 21 4 C22.84457074 7.68914149 22.4871454 11.97293139 22 16 C20.125 18.625 20.125 18.625 18 20 C17.34 20 16.68 20 16 20 C18.09144671 23.82229916 19.83346756 26.99179418 23 30 C23 30.66 23 31.32 23 32 C23.66 32 24.32 32 25 32 C25.16218018 31.41299316 25.32436035 30.82598633 25.49145508 30.22119141 C27.4476607 23.4015022 29.95002839 16.91524318 32.6875 10.375 C33.10322266 9.37082031 33.51894531 8.36664063 33.94726562 7.33203125 C34.96054096 4.88619424 35.97816796 2.4422715 37 0 C39.31 0 41.62 0 44 0 C45.85360979 4.53808271 47.70496419 9.0770762 49.55419922 13.61694336 C50.18410737 15.16244593 50.81464008 16.70769408 51.44580078 18.25268555 C52.35091359 20.4685779 53.25380424 22.68536411 54.15625 24.90234375 C54.44060913 25.5971434 54.72496826 26.29194305 55.01794434 27.00779724 C57 31.88612829 57 31.88612829 57 33 C54.36 33 51.72 33 49 33 C48.34 31.35 47.68 29.7 47 28 C42.71 28 38.42 28 34 28 C33.34 29.65 32.68 31.3 32 33 C16.69775785 34.38026906 16.69775785 34.38026906 12.53515625 30.99609375 C11.06886326 28.70523502 9.92725831 26.55376058 9 24 C8.67 26.97 8.34 29.94 8 33 C5.36 33 2.72 33 0 33 C0 22.11 0 11.22 0 0 Z " fill="#141414" transform="translate(257,278)"/>
<path d="M0 0 C2.05078125 0.03255208 4.1015625 0.06510417 6.15234375 0.09765625 C9.28370066 7.28229241 11.41986258 14.45898927 13.15234375 22.09765625 C13.41712524 21.15128296 13.41712524 21.15128296 13.68725586 20.18579102 C14.48470133 17.34294117 15.28720243 14.50154327 16.08984375 11.66015625 C16.36763672 10.66693359 16.64542969 9.67371094 16.93164062 8.65039062 C17.19912109 7.70615234 17.46660156 6.76191406 17.7421875 5.7890625 C17.98831787 4.91451416 18.23444824 4.03996582 18.48803711 3.13891602 C19.15234375 1.09765625 19.15234375 1.09765625 20.15234375 0.09765625 C21.67162413 0.02585661 23.19401857 0.01373618 24.71484375 0.03515625 C25.54113281 0.04417969 26.36742187 0.05320313 27.21875 0.0625 C27.85683594 0.07410156 28.49492187 0.08570313 29.15234375 0.09765625 C30.01053707 4.31444389 30.86493163 8.53197798 31.71582031 12.75024414 C32.0057931 14.18502561 32.29680135 15.61959821 32.58886719 17.05395508 C33.00858862 19.11615782 33.4245758 21.17908396 33.83984375 23.2421875 C34.09121094 24.48331299 34.34257812 25.72443848 34.6015625 27.00317383 C35.15234375 30.09765625 35.15234375 30.09765625 35.15234375 33.09765625 C32.51234375 33.09765625 29.87234375 33.09765625 27.15234375 33.09765625 C26.64784973 30.51512732 26.14860074 27.93176922 25.65234375 25.34765625 C25.50925781 24.61804688 25.36617188 23.8884375 25.21875 23.13671875 C24.56345496 19.70422093 24.15234375 16.60596134 24.15234375 13.09765625 C23.49234375 13.09765625 22.83234375 13.09765625 22.15234375 13.09765625 C22.02988281 13.93554688 21.90742188 14.7734375 21.78125 15.63671875 C21.10849663 19.33895157 20.14584845 22.86180147 19.08984375 26.47265625 C18.72761719 27.71789062 18.36539063 28.963125 17.9921875 30.24609375 C17.71503906 31.18710937 17.43789062 32.128125 17.15234375 33.09765625 C14.84234375 33.09765625 12.53234375 33.09765625 10.15234375 33.09765625 C7.96452541 27.57601949 6.27305677 22.07485178 4.80078125 16.3203125 C4.35919404 14.14424873 4.35919404 14.14424873 3.15234375 13.09765625 C2.16234375 19.69765625 1.17234375 26.29765625 0.15234375 33.09765625 C-2.48765625 33.09765625 -5.12765625 33.09765625 -7.84765625 33.09765625 C-7.53375944 25.37579473 -6.36095442 17.97664711 -4.84765625 10.41015625 C-4.66944336 9.51264648 -4.49123047 8.61513672 -4.30761719 7.69042969 C-2.75693639 0.14571545 -2.75693639 0.14571545 0 0 Z " fill="#111111" transform="translate(230.84765625,234.90234375)"/>
<path d="M0 0 C2.05078125 0.03255208 4.1015625 0.06510417 6.15234375 0.09765625 C9.28370066 7.28229241 11.41986258 14.45898927 13.15234375 22.09765625 C13.41712524 21.15128296 13.41712524 21.15128296 13.68725586 20.18579102 C14.48470133 17.34294117 15.28720243 14.50154327 16.08984375 11.66015625 C16.36763672 10.66693359 16.64542969 9.67371094 16.93164062 8.65039062 C17.19912109 7.70615234 17.46660156 6.76191406 17.7421875 5.7890625 C17.98831787 4.91451416 18.23444824 4.03996582 18.48803711 3.13891602 C19.15234375 1.09765625 19.15234375 1.09765625 20.15234375 0.09765625 C21.67162413 0.02585661 23.19401857 0.01373618 24.71484375 0.03515625 C25.54113281 0.04417969 26.36742187 0.05320313 27.21875 0.0625 C27.85683594 0.07410156 28.49492187 0.08570313 29.15234375 0.09765625 C30.01053707 4.31444389 30.86493163 8.53197798 31.71582031 12.75024414 C32.0057931 14.18502561 32.29680135 15.61959821 32.58886719 17.05395508 C33.00858862 19.11615782 33.4245758 21.17908396 33.83984375 23.2421875 C34.09121094 24.48331299 34.34257812 25.72443848 34.6015625 27.00317383 C35.15234375 30.09765625 35.15234375 30.09765625 35.15234375 33.09765625 C32.51234375 33.09765625 29.87234375 33.09765625 27.15234375 33.09765625 C26.64784973 30.51512732 26.14860074 27.93176922 25.65234375 25.34765625 C25.50925781 24.61804688 25.36617187 23.8884375 25.21875 23.13671875 C24.56345496 19.70422093 24.15234375 16.60596134 24.15234375 13.09765625 C23.49234375 13.09765625 22.83234375 13.09765625 22.15234375 13.09765625 C22.02988281 13.93554688 21.90742188 14.7734375 21.78125 15.63671875 C21.10849663 19.33895157 20.14584845 22.86180147 19.08984375 26.47265625 C18.72761719 27.71789062 18.36539063 28.963125 17.9921875 30.24609375 C17.71503906 31.18710937 17.43789062 32.128125 17.15234375 33.09765625 C14.84234375 33.09765625 12.53234375 33.09765625 10.15234375 33.09765625 C7.96452541 27.57601949 6.27305677 22.07485178 4.80078125 16.3203125 C4.35919404 14.14424873 4.35919404 14.14424873 3.15234375 13.09765625 C2.16234375 19.69765625 1.17234375 26.29765625 0.15234375 33.09765625 C-2.48765625 33.09765625 -5.12765625 33.09765625 -7.84765625 33.09765625 C-7.53375944 25.37579473 -6.36095442 17.97664711 -4.84765625 10.41015625 C-4.66944336 9.51264648 -4.49123047 8.61513672 -4.30761719 7.69042969 C-2.75693639 0.14571545 -2.75693639 0.14571545 0 0 Z " fill="#111111" transform="translate(155.84765625,234.90234375)"/>
<path d="M0 0 C78.54 0 157.08 0 238 0 C238.33 0.99 238.66 1.98 239 3 C159.8 3 80.6 3 -1 3 C-0.67 2.01 -0.34 1.02 0 0 Z " fill="#F86135" transform="translate(131,321)"/>
<path d="M0 0 C2.31 0 4.62 0 7 0 C7.55429688 0.97582031 8.10859375 1.95164062 8.6796875 2.95703125 C9.41140091 4.24222019 10.14317492 5.52737464 10.875 6.8125 C11.23980469 7.45509766 11.60460937 8.09769531 11.98046875 8.75976562 C13.58083901 11.56768798 15.20642866 14.30964298 17 17 C17.33 11.39 17.66 5.78 18 0 C20.64 0 23.28 0 26 0 C26 10.89 26 21.78 26 33 C23.36 33 20.72 33 18 33 C14.7 27.06 11.4 21.12 8 15 C7.67 20.94 7.34 26.88 7 33 C4.69 33 2.38 33 0 33 C0 22.11 0 11.22 0 0 Z " fill="#131313" transform="translate(202,278)"/>
<path d="M0 0 C1.4540625 0.0309375 1.4540625 0.0309375 2.9375 0.0625 C6.53303797 7.51698532 9.80469705 15.04216658 12.8125 22.75 C13.1226001 23.54003418 13.4327002 24.33006836 13.75219727 25.14404297 C15.9375 30.80991678 15.9375 30.80991678 15.9375 33.0625 C13.2975 33.0625 10.6575 33.0625 7.9375 33.0625 C7.6075 31.0825 7.2775 29.1025 6.9375 27.0625 C2.3175 27.0625 -2.3025 27.0625 -7.0625 27.0625 C-7.3925 29.0425 -7.7225 31.0225 -8.0625 33.0625 C-10.7025 33.0625 -13.3425 33.0625 -16.0625 33.0625 C-14.00856758 25.65229378 -11.38834753 18.59631235 -8.4375 11.5 C-8.03015625 10.50419922 -7.6228125 9.50839844 -7.203125 8.48242188 C-3.73738175 0.0762731 -3.73738175 0.0762731 0 0 Z " fill="#121212" transform="translate(309.0625,234.9375)"/>
<path d="M0 0 C2.31 0 4.62 0 7 0 C8.85360979 4.53808271 10.70496419 9.0770762 12.55419922 13.61694336 C13.18410737 15.16244593 13.81464008 16.70769408 14.44580078 18.25268555 C15.35091359 20.4685779 16.25380424 22.68536411 17.15625 24.90234375 C17.44060913 25.5971434 17.72496826 26.29194305 18.01794434 27.00779724 C20 31.88612829 20 31.88612829 20 33 C17.36 33 14.72 33 12 33 C11.34 31.35 10.68 29.7 10 28 C5.71 28 1.42 28 -3 28 C-3.99 30.475 -3.99 30.475 -5 33 C-7.31 33 -9.62 33 -12 33 C-11.40405108 28.4992514 -10.23171075 24.69723284 -8.49609375 20.5078125 C-7.75649414 18.70957031 -7.75649414 18.70957031 -7.00195312 16.875 C-6.48060478 15.62494326 -5.95911869 14.37494396 -5.4375 13.125 C-4.91153536 11.85179948 -4.3861391 10.578364 -3.86132812 9.3046875 C-2.57978638 6.20076989 -1.29251196 3.09936178 0 0 Z " fill="#141414" transform="translate(294,278)"/>
<path d="M0 0 C2.31 0 4.62 0 7 0 C7.01981934 0.65073486 7.03963867 1.30146973 7.06005859 1.97192383 C7.15529299 4.91919151 7.26497818 7.86574885 7.375 10.8125 C7.4059375 11.83666016 7.436875 12.86082031 7.46875 13.91601562 C7.50742188 14.89892578 7.54609375 15.88183594 7.5859375 16.89453125 C7.6173584 17.80050049 7.6487793 18.70646973 7.68115234 19.63989258 C7.86027919 22.26525392 7.86027919 22.26525392 10 25 C12.97 25 15.94 25 19 25 C19.33 16.75 19.66 8.5 20 0 C22.31 0 24.62 0 27 0 C27.08751413 3.87485635 27.14056435 7.74945643 27.1875 11.625 C27.21263672 12.71941406 27.23777344 13.81382812 27.26367188 14.94140625 C27.35962462 25.49620821 27.35962462 25.49620821 24 30 C19.47767316 33.61327804 15.40905114 33.50260949 9.8203125 33.3515625 C6.1008317 32.88791531 4.36002296 31.91069498 2 29 C0.2054955 25.28768325 -0.23921652 22.3667446 -0.1953125 18.26171875 C-0.18886719 17.19501953 -0.18242187 16.12832031 -0.17578125 15.02929688 C-0.15902344 13.92650391 -0.14226562 12.82371094 -0.125 11.6875 C-0.11597656 10.56537109 -0.10695312 9.44324219 -0.09765625 8.28710938 C-0.07414486 5.52452091 -0.04128155 2.76237068 0 0 Z " fill="#0E0E0E" transform="translate(193,235)"/>
<path d="M0 0 C7.92 0 15.84 0 24 0 C23.16773725 4.16131375 22.42314589 6.47157725 20.49609375 10.08203125 C20.00302734 11.01337891 19.50996094 11.94472656 19.00195312 12.90429688 C18.48568359 13.86400391 17.96941406 14.82371094 17.4375 15.8125 C16.91736328 16.79154297 16.39722656 17.77058594 15.86132812 18.77929688 C14.57993932 21.1892483 13.2907272 23.59503712 12 26 C15.96 26 19.92 26 24 26 C24 28.31 24 30.62 24 33 C16.08 33 8.16 33 0 33 C1.33617319 28.99148043 2.45038916 25.8749126 4.3828125 22.2578125 C4.82753906 21.41992188 5.27226562 20.58203125 5.73046875 19.71875 C6.19066406 18.8628125 6.65085937 18.006875 7.125 17.125 C7.59292969 16.24585938 8.06085938 15.36671875 8.54296875 14.4609375 C9.69119108 12.3050915 10.84503492 10.1522412 12 8 C8.04 7.67 4.08 7.34 0 7 C0 4.69 0 2.38 0 0 Z " fill="#121212" transform="translate(327,235)"/>
<path d="M0 0 C6.27 0 12.54 0 19 0 C19 2.31 19 4.62 19 7 C15.04 7 11.08 7 7 7 C7 9.31 7 11.62 7 14 C10.63 14 14.26 14 18 14 C18 15.98 18 17.96 18 20 C14.37 20 10.74 20 7 20 C7 24.29 7 28.58 7 33 C4.69 33 2.38 33 0 33 C0 22.11 0 11.22 0 0 Z " fill="#0D0D0D" transform="translate(233,278)"/>
<path d="M0 0 C8.58 0 17.16 0 26 0 C26 2.31 26 4.62 26 7 C23.03 7 20.06 7 17 7 C17 15.58 17 24.16 17 33 C14.69 33 12.38 33 10 33 C10 24.42 10 15.84 10 7 C6.7 7 3.4 7 0 7 C0 4.69 0 2.38 0 0 Z " fill="#0D0D0D" transform="translate(266,235)"/>
<path d="M0 0 C4.62 0 9.24 0 14 0 C14 7.26 14 14.52 14 22 C2.99679829 17.59871932 2.99679829 17.59871932 0 14 C-0.8084604 9.09461187 -0.42591868 5.01637553 0 0 Z " fill="#FEFBFA" transform="translate(320,173)"/>
<path d="M0 0 C2.31 0 4.62 0 7 0 C7 10.89 7 21.78 7 33 C4.69 33 2.38 33 0 33 C0 22.11 0 11.22 0 0 Z " fill="#090909" transform="translate(189,278)"/>
<path d="M0 0 C5.41139241 -0.36075949 5.41139241 -0.36075949 7.9375 1.1875 C9 3 9 3 8.8125 5.5625 C8 8 8 8 6 10 C2.875 10.125 2.875 10.125 0 10 C0 6.7 0 3.4 0 0 Z " fill="#DFDFDF" transform="translate(264,284)"/>
<path d="M0 0 C4.70588235 0.70588235 4.70588235 0.70588235 6 2 C6.04080783 3.99958364 6.04254356 6.00045254 6 8 C3.125 8.125 3.125 8.125 0 8 C-0.66 7.34 -1.32 6.68 -2 6 C-1.44444444 1.44444444 -1.44444444 1.44444444 0 0 Z " fill="#7D7D7D" transform="translate(308,348)"/>
<path d="M0 0 C0.66 0 1.32 0 2 0 C2.50615298 1.26839526 3.00469099 2.53983102 3.5 3.8125 C3.91765625 4.87404297 3.91765625 4.87404297 4.34375 5.95703125 C5 8 5 8 5 11 C2.36 11 -0.28 11 -3 11 C-2.32829194 7.1936543 -1.27253436 3.64793184 0 0 Z " fill="#D7D7D7" transform="translate(308,245)"/>
<path d="M0 0 C2.625 0.375 2.625 0.375 5 1 C5.625 3.375 5.625 3.375 6 6 C5.34 6.66 4.68 7.32 4 8 C1.375 7.625 1.375 7.625 -1 7 C-1.625 4.625 -1.625 4.625 -2 2 C-1.34 1.34 -0.68 0.68 0 0 Z " fill="#404040" transform="translate(231,348)"/>
<path d="M0 0 C0.66 0.33 1.32 0.66 2 1 C2.6328125 3.06640625 2.6328125 3.06640625 3.125 5.5625 C3.29257812 6.38878906 3.46015625 7.21507812 3.6328125 8.06640625 C3.75398438 8.70449219 3.87515625 9.34257812 4 10 C1.69 10 -0.62 10 -3 10 C-2.69201674 8.51988629 -2.378482 7.04092675 -2.0625 5.5625 C-1.88847656 4.73878906 -1.71445312 3.91507812 -1.53515625 3.06640625 C-1 1 -1 1 0 0 Z " fill="#E8E8E8" transform="translate(297,288)"/>
<path d="M0 0 C2.475 0.495 2.475 0.495 5 1 C5.625 3.375 5.625 3.375 6 6 C5.34 6.66 4.68 7.32 4 8 C2.68 8 1.36 8 0 8 C0 5.36 0 2.72 0 0 Z " fill="#727272" transform="translate(263,348)"/>
<path d="M0 0 C1.65 0 3.3 0 5 0 C5.82638376 2.89234315 6 4.88742431 6 8 C5.34 8 4.68 8 4 8 C4 7.01 4 6.02 4 5 C3.34 5 2.68 5 2 5 C2 5.99 2 6.98 2 8 C1.34 8 0.68 8 0 8 C0 5.36 0 2.72 0 0 Z " fill="#575757" transform="translate(209,348)"/>
<path d="M0 0 C0.99 0 1.98 0 3 0 C3 1.32 3 2.64 3 4 C3.66 4 4.32 4 5 4 C5 5.32 5 6.64 5 8 C3.02 8 1.04 8 -1 8 C-1 4.88742431 -0.82638376 2.89234315 0 0 Z " fill="#575757" transform="translate(352,334)"/>
<path d="M0 0 C1.65 0 3.3 0 5 0 C5.82638376 2.89234315 6 4.88742431 6 8 C5.34 8 4.68 8 4 8 C4 7.01 4 6.02 4 5 C3.34 5 2.68 5 2 5 C2 5.99 2 6.98 2 8 C1.34 8 0.68 8 0 8 C0 5.36 0 2.72 0 0 Z " fill="#575757" transform="translate(260,334)"/>
<path d="M0 0 C1.65 0 3.3 0 5 0 C5.82638376 2.89234315 6 4.88742431 6 8 C5.34 8 4.68 8 4 8 C4 7.01 4 6.02 4 5 C3.34 5 2.68 5 2 5 C2 5.99 2 6.98 2 8 C1.34 8 0.68 8 0 8 C0 5.36 0 2.72 0 0 Z " fill="#575757" transform="translate(155,334)"/>
<path d="M0 0 C0.66 0 1.32 0 2 0 C2 0.99 2 1.98 2 3 C2.99 3 3.98 3 5 3 C5 2.01 5 1.02 5 0 C5.66 0 6.32 0 7 0 C7 2.64 7 5.28 7 8 C6.34 8 5.68 8 5 8 C5 7.01 5 6.02 5 5 C4.01 5 3.02 5 2 5 C2 5.99 2 6.98 2 8 C1.34 8 0.68 8 0 8 C0 5.36 0 2.72 0 0 Z " fill="#555555" transform="translate(180,334)"/>
<path d="M0 0 C1.65 0 3.3 0 5 0 C5.82638376 2.89234315 6 4.88742431 6 8 C4 8 4 8 2.375 6.5 C1.92125 6.005 1.4675 5.51 1 5 C0.67 5.99 0.34 6.98 0 8 C0 5.36 0 2.72 0 0 Z " fill="#4E4E4E" transform="translate(243,348)"/>
<path d="M0 0 C3 1 3 1 4 3 C4.66 2.01 5.32 1.02 6 0 C6 2.64 6 5.28 6 8 C5.01 7.34 4.02 6.68 3 6 C2.67 6.66 2.34 7.32 2 8 C1.34 8 0.68 8 0 8 C0 5.36 0 2.72 0 0 Z " fill="#363636" transform="translate(174,348)"/>
<path d="M0 0 C1.485 0.99 1.485 0.99 3 2 C3.33 1.34 3.66 0.68 4 0 C4.66 0 5.32 0 6 0 C6 2.64 6 5.28 6 8 C5.01 7.67 4.02 7.34 3 7 C2.67 6.34 2.34 5.68 2 5 C1.34 5.99 0.68 6.98 0 8 C0 5.36 0 2.72 0 0 Z " fill="#323232" transform="translate(320,348)"/>
<path d="M0 0 C1.65 0 3.3 0 5 0 C5 1.65 5 3.3 5 5 C4.01 5 3.02 5 2 5 C2 5.66 2 6.32 2 7 C2.99 7.33 3.98 7.66 5 8 C3.35 8 1.7 8 0 8 C0 5.36 0 2.72 0 0 Z " fill="#4A4A4A" transform="translate(275,348)"/>
<path d="M0 0 C1.65 0 3.3 0 5 0 C5 1.65 5 3.3 5 5 C4.01 5 3.02 5 2 5 C2 5.66 2 6.32 2 7 C2.99 7.33 3.98 7.66 5 8 C3.35 8 1.7 8 0 8 C0 5.36 0 2.72 0 0 Z " fill="#4A4A4A" transform="translate(198,348)"/>
<path d="M0 0 C0.66 0 1.32 0 2 0 C3.42944945 2.35438733 4.08661261 3.48032433 3.625 6.25 C3.41875 6.8275 3.2125 7.405 3 8 C1.35 8 -0.3 8 -2 8 C-1.125 2.25 -1.125 2.25 0 0 Z " fill="#4A4A4A" transform="translate(145,334)"/>
<path d="M0 0 C1.65 0 3.3 0 5 0 C5 1.65 5 3.3 5 5 C4.01 5 3.02 5 2 5 C2 5.66 2 6.32 2 7 C2.99 7.33 3.98 7.66 5 8 C3.35 8 1.7 8 0 8 C0 5.36 0 2.72 0 0 Z " fill="#4A4A4A" transform="translate(212,334)"/>
<path d="M0 0 C1.65 0 3.3 0 5 0 C4.01 0.33 3.02 0.66 2 1 C2 1.66 2 2.32 2 3 C2.99 3 3.98 3 5 3 C5 3.66 5 4.32 5 5 C4.01 5 3.02 5 2 5 C2 5.66 2 6.32 2 7 C2.99 7.33 3.98 7.66 5 8 C3.35 8 1.7 8 0 8 C0 5.36 0 2.72 0 0 Z " fill="#4A4A4A" transform="translate(272,334)"/>
<path d="M0 0 C0.99 0.495 0.99 0.495 2 1 C2 1.99 2 2.98 2 4 C2.66 4 3.32 4 4 4 C4.33 2.68 4.66 1.36 5 0 C6.2077558 3.62326739 5.54311128 4.64146369 4 8 C3.34 8 2.68 8 2 8 C0.23537317 4.91190305 0 3.76687864 0 0 Z " fill="#4C4C4C" transform="translate(312,334)"/>
<path d="M0 0 C1.98 0 3.96 0 6 0 C6 0.66 6 1.32 6 2 C5.34 2 4.68 2 4 2 C4 3.98 4 5.96 4 8 C3.34 8 2.68 8 2 8 C2 6.02 2 4.04 2 2 C1.34 2 0.68 2 0 2 C0 1.34 0 0.68 0 0 Z " fill="#545454" transform="translate(186,348)"/>
<path d="M0 0 C1.98 0 3.96 0 6 0 C6 0.66 6 1.32 6 2 C5.34 2 4.68 2 4 2 C4 3.98 4 5.96 4 8 C3.34 8 2.68 8 2 8 C2 6.02 2 4.04 2 2 C1.34 2 0.68 2 0 2 C0 1.34 0 0.68 0 0 Z " fill="#545454" transform="translate(236,334)"/>
<path d="M0 0 C1.67542976 0.28604898 3.34385343 0.61781233 5 1 C5 1.66 5 2.32 5 3 C3.35 2.67 1.7 2.34 0 2 C0 3.65 0 5.3 0 7 C-0.66 6.67 -1.32 6.34 -2 6 C-1.125 1.125 -1.125 1.125 0 0 Z " fill="#535353" transform="translate(293,334)"/>
<path d="M0 0 C1.67542976 0.28604898 3.34385343 0.61781233 5 1 C5 1.66 5 2.32 5 3 C3.35 2.67 1.7 2.34 0 2 C0 3.65 0 5.3 0 7 C-0.66 6.67 -1.32 6.34 -2 6 C-1.125 1.125 -1.125 1.125 0 0 Z " fill="#535353" transform="translate(169,334)"/>
<path d="M0 0 C1.32 0 2.64 0 4 0 C3.67 1.65 3.34 3.3 3 5 C2.01 5 1.02 5 0 5 C0 3.35 0 1.7 0 0 Z " fill="#E8E8E8" transform="translate(231,350)"/>
<path d="M0 0 C1.98 0 3.96 0 6 0 C6 0.66 6 1.32 6 2 C5.34 2 4.68 2 4 2 C4 3.98 4 5.96 4 8 C3.67 8 3.34 8 3 8 C3 6.02 3 4.04 3 2 C2.01 2 1.02 2 0 2 C0 1.34 0 0.68 0 0 Z " fill="#424242" transform="translate(200,334)"/>
</svg>
